<svg xmlns="http://www.w3.org/2000/svg" xmlns:xlink="http://www.w3.org/1999/xlink" width="0" height="0"
     style="position:absolute">
    <symbol id="angle-left" viewBox="0 0 21 20">
        <path d="M13.5,19.5c-0.3,0-0.5-0.1-0.7-0.3l-8.5-8.5c-0.4-0.4-0.4-1,0-1.4l8.5-8.5c0.4-0.4,1-0.4,1.4,0s0.4,1,0,1.4L6.4,10
				l7.8,7.8c0.4,0.4,0.4,1,0,1.4C14,19.4,13.8,19.5,13.5,19.5z" stroke="transparent" />
    </symbol>
    <symbol id="angle-right" viewBox="0 0 21 20">
        <path d="M7.5,19.5c-0.3,0-0.5-0.1-0.7-0.3c-0.4-0.4-0.4-1,0-1.4l7.8-7.8L6.8,2.2c-0.4-0.4-0.4-1,0-1.4s1-0.4,1.4,0l8.5,8.5
				c0.4,0.4,0.4,1,0,1.4l-8.5,8.5C8,19.4,7.8,19.5,7.5,19.5z" stroke="transparent" />
    </symbol>
    <symbol id="angle-down" viewBox="0 0 20 20">
        <g clip-path="url(#clip0_35_17663)" fill="transparent">
            <path d="M18.4862 6L10.0009 14.4853L1.51562 6" stroke-width="2" stroke-linecap="round" stroke-linejoin="round"/>
        </g>
        <defs>
            <clipPath id="clip0_35_17663">
                <rect width="20" height="20" fill="white" transform="translate(0 20) rotate(-90)"/>
            </clipPath>
        </defs>
    </symbol>
    <symbol id="article-doc" viewBox="0 0 20 20">
        <g stroke="transparent">
            <path d="M18.7,7.1L16,4.4V3c0-1.1-0.9-2-2-2H4C2.9,1,2,1.9,2,3v14c0,1.1,0.9,2,2,2h10c1.1,0,2-0.9,2-2v-5.7l2.7-2.7
		C19.1,8.1,19.1,7.5,18.7,7.1z M14,17H4V3h10v1.8l-6.6,6.6c-0.1,0.1-0.2,0.3-0.3,0.5l-0.7,3.5c-0.1,0.3,0,0.7,0.3,0.9
		c0.2,0.2,0.4,0.3,0.7,0.3c0.1,0,0.1,0,0.2,0l3.5-0.7c0.2,0,0.4-0.1,0.5-0.3l2.3-2.3V17z M10.5,14l-1.8,0.4L9,12.6l6.1-6.2l1.4,1.4
		L10.5,14z"/>
            <path d="M6,6h5c0.6,0,1-0.4,1-1s-0.4-1-1-1H6C5.4,4,5,4.4,5,5S5.4,6,6,6z"/>
            <path d="M9,8c0-0.6-0.4-1-1-1H6C5.4,7,5,7.4,5,8s0.4,1,1,1h2C8.6,9,9,8.6,9,8z"/>
        </g>

    </symbol>
    <symbol id="check" viewBox="0 0 20 20">
        <path d="M7.3,16c-0.2,0-0.5-0.1-0.7-0.3l-5.3-5c-0.4-0.4-0.4-1,0-1.4c0.4-0.4,1-0.4,1.4,0l4.6,4.4l10-9.4c0.4-0.4,1-0.4,1.4,0
	c0.4,0.4,0.4,1,0,1.4L8,15.7C7.8,15.9,7.6,16,7.3,16z" stroke="transparent" />
    </symbol>
    <symbol id="megaphone" viewBox="0 0 21 20">
        <g stroke="transparent">
            <path d="M15.5,12.6l-5-8.7L4.6,9.6l0,0l-3.5,2l3,5.2l1.7-1L7.1,18c0.2,0.3,0.5,0.5,0.9,0.5c0.2,0,0.3,0,0.5-0.1
		c0.5-0.3,0.6-0.9,0.4-1.4l-1.2-2.2l0,0L15.5,12.6z M10,7.1l2.4,4.2l-4,1.1L7.1,10L10,7.1z M3.8,12.4l1.7-1l1,1.7l-0.9,0.5
		c0,0,0,0,0,0s0,0,0,0l-0.9,0.5L3.8,12.4z"/>
            <path d="M13.9,7.7C14,8,14.4,8.2,14.7,8.2c0.2,0,0.3,0,0.5-0.1l2.6-1.5c0.5-0.3,0.6-0.9,0.4-1.4c-0.3-0.5-0.9-0.6-1.4-0.4l-2.6,1.5
		C13.8,6.6,13.6,7.2,13.9,7.7z"/>
            <path d="M13.2,5.6c0.3,0,0.6-0.1,0.8-0.4l1.7-2.1c0.3-0.4,0.3-1.1-0.2-1.4c-0.4-0.3-1.1-0.3-1.4,0.2L12.4,4
		c-0.3,0.4-0.3,1.1,0.2,1.4C12.8,5.6,13,5.6,13.2,5.6z"/>
            <path d="M18.8,8.5l-2.7,0.4c-0.5,0.1-0.9,0.6-0.8,1.1c0.1,0.5,0.5,0.9,1,0.9c0,0,0.1,0,0.1,0l2.7-0.4c0.5-0.1,0.9-0.6,0.8-1.1
		C19.8,8.8,19.3,8.4,18.8,8.5z"/>
        </g>

    </symbol>
    <symbol id="star" viewBox="0 0 20 20">
        <path d="M14.3,16.9c-0.2,0-0.4-0.1-0.5-0.2l-3.2-2c-0.3-0.2-0.7-0.2-1.1,0l-3.2,2c-0.3,0.2-0.8,0.2-1.1,0c-0.3-0.2-0.5-0.7-0.4-1.1
	L5.7,12c0.1-0.4,0-0.8-0.3-1L2.4,8.5C2.1,8.2,2,7.8,2.1,7.4C2.2,7,2.6,6.8,3,6.7l3.8-0.3c0.4,0,0.7-0.3,0.9-0.6l1.4-3.5
	C9.2,1.9,9.6,1.7,10,1.7s0.8,0.2,0.9,0.6l1.4,3.5c0.1,0.4,0.5,0.6,0.9,0.6L17,6.7c0.4,0,0.8,0.3,0.9,0.7c0.1,0.4,0,0.8-0.3,1.1
	L14.7,11c-0.3,0.2-0.4,0.6-0.3,1l0.9,3.7c0.1,0.4,0,0.8-0.4,1.1C14.7,16.9,14.5,16.9,14.3,16.9z M10,13.6c0.4,0,0.7,0.1,1.1,0.3
	l3.2,2l-0.9-3.7c-0.2-0.7,0.1-1.5,0.7-2L17,7.7l-3.8-0.3c-0.8-0.1-1.4-0.5-1.7-1.3L10,2.7L8.6,6.2c-0.3,0.7-1,1.2-1.7,1.2L3,7.7
	L6,10.2c0.6,0.5,0.8,1.3,0.7,2l-0.9,3.7l3.2-2C9.3,13.7,9.6,13.6,10,13.6z" stroke="transparent"/>
    </symbol>
    <symbol id="star-2" viewBox="0 0 41 40" >
        <g clip-path="url(#clip0_105_13476)" fill="transparent">
            <path d="M18.9231 3.5747C19.442 2.0821 21.5528 2.0821 22.0717 3.5747L24.8998 11.7109C25.4033 13.1595 26.7552 14.1416 28.2885 14.1729L36.9004 14.3484C38.4803 14.3806 39.1326 16.3882 37.8733 17.3428L31.0093 22.5468C29.7872 23.4733 29.2709 25.0625 29.715 26.5304L32.2093 34.775C32.6669 36.2875 30.9591 37.5283 29.662 36.6257L22.5917 31.7057C21.3329 30.8298 19.6619 30.8298 18.4031 31.7057L11.3327 36.6257C10.0357 37.5283 8.32793 36.2875 8.78552 34.775L11.2798 26.5304C11.7239 25.0625 11.2076 23.4733 9.98547 22.5468L3.12145 17.3428C1.86223 16.3882 2.51454 14.3806 4.09441 14.3484L12.7063 14.1729C14.2396 14.1416 15.5915 13.1595 16.095 11.7109L18.9231 3.5747Z" stroke-width="2"/>
        </g>
        <defs>
            <clipPath id="clip0_105_13476">
                <rect width="40" height="40" fill="white" transform="translate(0.5)"/>
            </clipPath>
        </defs>
    </symbol>
    <symbol id="user-verified" viewBox="0 0 40 40" >
        <g stroke="transparent">
            <path d="M8,28c0.6,0,1-0.4,1-1v-6.2c0-0.5,0.1-0.8,0.3-1C11.2,17.7,17,15,19.8,15c1.8,0,5,1.1,7.7,2.7c0.5,0.3,1.1,0.1,1.4-0.4
		s0.1-1.1-0.4-1.4c-1.3-0.8-3-1.6-4.7-2.2C25.7,12.6,27,10.4,27,8V7c0-3.9-3.1-7-7-7c-3.9,0-7,3.1-7,7v1c0,2.4,1.2,4.5,3,5.7
		c-3.1,1-6.6,2.9-8.2,4.7C7.3,19.1,7,19.9,7,20.8V27C7,27.6,7.4,28,8,28z M15,8V7c0-2.8,2.2-5,5-5s5,2.2,5,5v1c0,2.8-2.2,5-5,5
		S15,10.8,15,8z"/>
            <path d="M36.7,16.3c-0.4-0.4-1-0.4-1.4,0l-21,21.3l-8.6-8.2c-0.4-0.4-1-0.4-1.4,0c-0.4,0.4-0.4,1,0,1.4l9.4,8.9
		c0.2,0.2,0.4,0.3,0.7,0.3c0.3,0,0.5-0.1,0.7-0.3l21.6-22C37.1,17.3,37.1,16.7,36.7,16.3z" />
        </g>

    </symbol>
    <symbol id="invoice" viewBox="0 0 40 40" >
        <g stroke="transparent">
            <g>
                <path d="M9,20H3c-1.1,0-2-0.9-2-2V4c0-2.2,1.8-4,4-4s4,1.8,4,4V20z M5,2C3.9,2,3,2.9,3,4v14h4V4C7,2.9,6.1,2,5,2z"/>
            </g>
            <g>
                <path d="M34,22c-0.6,0-1-0.4-1-1V5c0-1.7-1.3-3-3-3H5C4.4,2,4,1.6,4,1s0.4-1,1-1h25c2.8,0,5,2.2,5,5v16C35,21.6,34.6,22,34,22z"/>
            </g>
            <g>
                <path d="M20.5,37H10c-1.7,0-3-1.3-3-3V19c0-0.6,0.4-1,1-1s1,0.4,1,1v15c0,0.6,0.4,1,1,1h10.5c0.6,0,1,0.4,1,1S21.1,37,20.5,37z"/>
            </g>
            <g>
                <path d="M28,40c-6.1,0-11-4.9-11-11s4.9-11,11-11s11,4.9,11,11S34.1,40,28,40z M28,20c-5,0-9,4-9,9s4,9,9,9s9-4,9-9S33,20,28,20z"
                />
            </g>
            <g>
                <path d="M26,36c-0.6,0-1-0.4-1-1v-5h-2c-0.6,0-1-0.4-1-1s0.4-1,1-1h2v-5c0-0.6,0.4-1,1-1h3c4.1,0,5,2.2,5,4s-0.9,4-5,4h-2v5
		C27,35.6,26.6,36,26,36z M27,28h2c2.8,0,3-1,3-2s-0.2-2-3-2h-2V28z"/>
            </g>
            <g>
                <path d="M30,33h-7c-0.6,0-1-0.4-1-1s0.4-1,1-1h7c0.6,0,1,0.4,1,1S30.6,33,30,33z"/>
            </g>
            <g>
                <path d="M19,8h-7c-0.6,0-1-0.4-1-1s0.4-1,1-1h7c0.6,0,1,0.4,1,1S19.6,8,19,8z"/>
            </g>
            <g>
                <path d="M30,8h-7c-0.6,0-1-0.4-1-1s0.4-1,1-1h7c0.6,0,1,0.4,1,1S30.6,8,30,8z"/>
            </g>
            <g>
                <path d="M30,13H12c-0.6,0-1-0.4-1-1s0.4-1,1-1h18c0.6,0,1,0.4,1,1S30.6,13,30,13z"/>
            </g>
            <g>
                <path d="M19.5,18H12c-0.6,0-1-0.4-1-1s0.4-1,1-1h7.5c0.6,0,1,0.4,1,1S20.1,18,19.5,18z"/>
            </g>
        </g>

    </symbol>
    <symbol id="large-family" viewBox="0 0 40 40" >
        <g fill="transparent">
            <path d="M19.1056 20.4472C19.275 20.786 19.6212 21 20 21C20.3788 21 20.725 20.786 20.8944 20.4472C21.0362 20.1637 21.4409 19.7162 22.1625 19.175C22.8538 18.6565 23.7374 18.1243 24.6972 17.6444C26.6585 16.6638 28.7379 16 30 16C31.1018 16 32.8445 16.5081 34.6077 17.3123C36.3625 18.1127 37.9284 19.1105 38.7162 19.936C38.8874 20.1154 39 20.4312 39 20.9406V35.0049C39 35.554 38.5555 36 38 36H2C1.4469 36 1 35.5527 1 35.0013V20.9389C1 20.4302 1.11228 20.1157 1.28385 19.936C2.07164 19.1105 3.63748 18.1127 5.39233 17.3123C7.15546 16.5081 8.89817 16 10 16C11.2621 16 13.3415 16.6638 15.3028 17.6444C16.2626 18.1243 17.1462 18.6565 17.8375 19.175C18.5591 19.7162 18.9638 20.1637 19.1056 20.4472Z"  stroke-width="2" stroke-linecap="round" stroke-linejoin="round"/>
            <mask id="path-2-inside-1_133_73478" fill="white">
                <path d="M4 9C4 5.68629 6.68629 3 10 3H15C15.5523 3 16 3.44772 16 4V10C16 13.3137 13.3137 16 10 16C6.68629 16 4 13.3137 4 10V9Z"/>
            </mask>
            <path d="M4 9C4 5.68629 6.68629 3 10 3H15C15.5523 3 16 3.44772 16 4V10C16 13.3137 13.3137 16 10 16C6.68629 16 4 13.3137 4 10V9Z" stroke-width="4" mask="url(#path-2-inside-1_133_73478)"/>
            <rect x="25" y="4" width="10" height="11" rx="5" stroke-width="2"/>
            <rect x="17" y="21" width="6" height="7" rx="3" stroke-width="2"/>
            <rect x="29" y="21" width="6" height="7" rx="3" stroke-width="2"/>
            <rect x="5" y="21" width="6" height="7" rx="3" stroke-width="2"/>
            <path d="M5.5 8C9.19616 8 10 8 12 8C14 8 15 6.4201 15 5" stroke-width="2" stroke-linecap="round" stroke-linejoin="round"/>
            <path d="M34 7C33 8 31 8 30 7" stroke-width="2" stroke-linecap="round" stroke-linejoin="round"/>
            <path d="M30 7C29 8 27 8 26 7" stroke-width="2" stroke-linecap="round" stroke-linejoin="round"/>
            <path d="M25 10C25.0003 11.5 25.4916 15 22.9899 18.5" stroke-width="2" stroke-linecap="round" stroke-linejoin="round"/>
            <path d="M35.0391 10C35.0388 11.5 34.5475 15 37.0491 18.5" stroke-width="2" stroke-linecap="round" stroke-linejoin="round"/>
            <path d="M1 31.7333C1 30.6667 7.06667 28 7.93333 28C8.8 28 14 30.6667 14 31.7333C14 32.8 14 36 14 36" stroke-width="2" stroke-linecap="round" stroke-linejoin="round"/>
            <path d="M39 31.7333C39 30.6667 32.9333 28 32.0667 28C31.2 28 26 30.6667 26 31.7333C26 32.8 26 36 26 36" stroke-width="2" stroke-linecap="round" stroke-linejoin="round"/>
            <path d="M20.0664 28C19.1997 28 13.9997 30.6667 13.9997 31.7333C13.9997 32.8 13.9997 36 13.9997 36" stroke-width="2" stroke-linecap="round" stroke-linejoin="round"/>
            <path d="M20 28C20.8667 28 26.0667 30.6667 26.0667 31.7333C26.0667 32.8 26.0667 36 26.0667 36" stroke-width="2" stroke-linecap="round" stroke-linejoin="round"/>
        </g>
    </symbol>
    <symbol id="arrow-long-right" viewBox="0 0 34 32" >
        <g stroke="transparent">
            <path d="M1 15.2C0.558172 15.2 0.2 15.5582 0.2 16C0.2 16.4418 0.558172 16.8 1 16.8V15.2ZM33.5657 16.5657C33.8781 16.2533 33.8781 15.7467 33.5657 15.4343L28.4745 10.3431C28.1621 10.0307 27.6556 10.0307 27.3431 10.3431C27.0307 10.6556 27.0307 11.1621 27.3431 11.4745L31.8686 16L27.3431 20.5255C27.0307 20.8379 27.0307 21.3444 27.3431 21.6569C27.6556 21.9693 28.1621 21.9693 28.4745 21.6569L33.5657 16.5657ZM1 16.8H33V15.2H1V16.8Z" />
        </g>
    </symbol>
    <symbol id="search" viewBox="0 0 16 16" >
        <g fill="transparent">
            <circle cx="6.4" cy="6.4" r="5.9" />
            <path d="M10.7998 10.7969L15.1998 15.1969" stroke-linecap="round"/>
        </g>
    </symbol>
    <symbol id="search-2" viewBox="0 0 30 30" >
        <g fill="transparent">
            <circle cx="14" cy="13" r="12" stroke-width="2"/>
            <path d="M9.05025 17.9497C8.07128 16.9708 7.4046 15.7235 7.1345 14.3656C6.86441 13.0078 7.00303 11.6003 7.53284 10.3212C8.06266 9.04213 8.95986 7.94888 10.111 7.17971C11.2622 6.41054 12.6155 6 14 6" stroke-width="2" stroke-linecap="round"/>
            <path d="M22 22L29 29" stroke-width="2" stroke-linecap="round"/>
        </g>
    </symbol>
    <symbol id="remove" viewBox="0 0 20 20" >
        <g fill="transparent">
            <path d="M2.92969 17.5703L17.0718 3.42818" stroke-width="2" stroke-linecap="round"/>
            <path d="M17.0703 17.5703L2.92818 3.42818" stroke-width="2" stroke-linecap="round"/>
        </g>
    </symbol>
    <symbol id="heart" viewBox="0 0 20 20" >
        <g fill="transparent">
            <path d="M9.18526 3.17906C9.36194 3.47253 9.67652 3.65515 10.019 3.66303C10.3614 3.67092 10.6841 3.50298 10.8741 3.21796C11.4963 2.28456 12.5713 1.59846 13.805 1.52115C15.0068 1.44583 16.5014 1.94274 17.98 3.64899C19.2567 5.12231 19.4093 7.50199 18.0143 10.33C16.6859 13.0229 14.0166 15.9363 10.0388 18.3377C5.98154 15.8723 3.30338 12.9341 1.97862 10.2445C0.587774 7.42071 0.756826 5.07581 1.99531 3.64983C4.83341 0.382085 8.08488 1.35125 9.18526 3.17906Z" stroke-width="2" stroke-linecap="round" stroke-linejoin="round"/>
        </g>
    </symbol>
    <symbol id="heart-2" viewBox="0 0 40 40" >
        <g fill="transparent">
            <path d="M19.2273 5.84236C19.4039 6.13583 19.7185 6.31844 20.061 6.32633C20.4034 6.33421 20.7261 6.16627 20.9161 5.88125C22.3218 3.77249 24.7475 2.21971 27.5474 2.04425C30.3154 1.87078 33.5917 3.03808 36.7157 6.6431C39.6379 10.0152 39.8095 15.2555 36.9253 21.1024C34.1087 26.8125 28.4436 32.9045 20.0759 37.8411C11.5484 32.7727 5.8684 26.6324 3.06015 20.9308C0.184965 15.0934 0.388713 9.92184 3.23563 6.64393C9.29058 -0.327662 16.6254 1.52057 19.2273 5.84236Z" stroke-width="2" stroke-linecap="round" stroke-linejoin="round"/>
        </g>
    </symbol>
    <symbol id="heart-full" viewBox="0 0 20 20" >
        <path d="M9.18526 3.17906C9.36194 3.47253 9.67652 3.65515 10.019 3.66303C10.3614 3.67092 10.6841 3.50298 10.8741 3.21796C11.4963 2.28456 12.5713 1.59846 13.805 1.52115C15.0068 1.44583 16.5014 1.94274 17.98 3.64899C19.2567 5.12231 19.4093 7.50199 18.0143 10.33C16.6859 13.0229 14.0166 15.9363 10.0388 18.3377C5.98154 15.8723 3.30338 12.9341 1.97862 10.2445C0.587774 7.42071 0.756826 5.07581 1.99531 3.64983C4.83341 0.382085 8.08488 1.35125 9.18526 3.17906Z" stroke-width="2" stroke-linecap="round" stroke-linejoin="round"/>
    </symbol>
    <symbol id="user-laptop" viewBox="0 0 40 40" >
        <g fill="transparent">
            <path d="M14.0776 7.99447L14.0776 7.99997C12.9739 -0.737165 23.5564 0.608153 24.5003 2.50009C24.9992 3.50016 24.8443 2.86163 26.4997 4.49991C27.5844 5.57341 26.9489 7.27163 26.2131 7.99973C26.2131 6.68916 23.1037 6.22806 22.0001 5.49997C20.0001 6.49997 19.0382 5.81496 16.2792 5.81496C14.0775 5.81496 14.0775 7.26457 14.0776 7.99447Z"  stroke-width="2" stroke-linecap="round" stroke-linejoin="round"/>
            <path d="M31 36H9L10.1579 39H29.8421L31 36Z" stroke-width="2" stroke-linecap="round" stroke-linejoin="round"/>
            <path d="M10 25C10 24.4477 10.4477 24 11 24H29C29.5523 24 30 24.4477 30 25V36H10V25Z" stroke-width="2" stroke-linejoin="round"/>
            <path d="M19 23.8182L16.1154 20C8.61538 20 4 25.9091 4 39" stroke-width="2" stroke-linecap="round"/>
            <path d="M21 23.8182L23.8846 20C31.3846 20 36 25.9091 36 39" stroke-width="2" stroke-linecap="round"/>
            <path d="M1 39H39" stroke-width="2" stroke-linecap="round"/>
            <path d="M13.8024 8C12.6764 8.625 12.4776 12 14.9173 13C14.9173 14.6667 16.6211 18 20 18" stroke-width="2" stroke-linecap="round"/>
            <path d="M26.1976 8C27.324 8.625 27.5224 12 25.0827 13C25.0827 14.6667 23.3789 18 20 18" stroke-width="2" stroke-linecap="round"/>
            <path d="M18 18C18 18 18 19 17 20" stroke-width="2" stroke-linecap="round" stroke-linejoin="round"/>
            <path d="M22 18C22 18 22 19 23 20" stroke-width="2" stroke-linecap="round" stroke-linejoin="round"/>
        </g>
    </symbol>
    <symbol id="download" viewBox="0 0 20 20" >
        <g fill="transparent">
            <path d="M15.6575 8.42188L10.0006 14.0787L4.34375 8.42188" stroke-width="2" stroke-linecap="round" stroke-linejoin="round"/>
            <path d="M2 18H18" stroke-width="2" stroke-linecap="round" stroke-linejoin="round"/>
            <path d="M10 13V2" stroke-width="2" stroke-linecap="round" stroke-linejoin="round"/>
        </g>
    </symbol>
    <symbol id="home" viewBox="0 0 40 40" >
        <g fill="transparent">
            <path d="M1 20H4.79892L4.8 39H35.2L35.1989 20H39L20.0011 1L1 20Z" stroke-width="2" stroke-linecap="round" stroke-linejoin="round"/>
            <path d="M10 39V25H16V39" stroke-width="2" stroke-linecap="round" stroke-linejoin="round"/>
            <path d="M21 28V20H30V28H21Z" stroke-width="2" stroke-linecap="round" stroke-linejoin="round"/>
            <path d="M9 12V2" stroke-width="2" stroke-linecap="round" stroke-linejoin="round"/>
        </g>
    </symbol>
    <symbol id="meditation" viewBox="0 0 116 136" >
        <g fill="transparent">
            <path d="M30.0226 124.656C28.5088 125.429 24.8668 127.521 24.5463 128.345C24.2257 129.17 24.8122 130.02 25.6142 130.278C25.6143 130.664 25.7485 131.334 26.817 131.952C26.9061 132.339 27.5383 133.138 28.2862 133.241C28.5534 133.885 29.4883 134.117 30.0226 134.014C30.2007 134.271 30.9041 134.709 32.2931 134.4C34.0295 134.014 44.604 127.713 46.8746 127.713" stroke-width="2" stroke-linecap="round" stroke-linejoin="round"/>
            <path d="M61.8164 115.486C68.2907 113.838 83.0609 109.086 90.3478 103.258" stroke-width="2" stroke-linecap="round" stroke-linejoin="round"/>
            <path d="M16.1879 88.4803C13.9514 91.5243 14.4985 90.9116 11.2095 91.7057C7.92053 92.4998 7.63655 92.0805 5.79473 93.404C3.9529 94.7274 5.24753 96.9504 6.73597 96.5616C7.54236 96.3509 9.38859 95.4368 9.34681 95.4946C8.98166 96.0002 7.50499 97.9146 5.79473 96.6857C4.87382 96.024 4.75774 96.5421 3.95291 96.5534C3.36715 96.5616 2.24641 98.2459 3.36925 98.8073C2.80834 99.3687 2.40253 100.439 3.92857 101.053C3.50758 101.9 4.49028 102.737 5.79473 102.914C5.66317 104.238 8.03122 104.952 10.5302 103.594C12.9138 102.298 16.1882 98.1415 18.6878 95.4946C19.2619 94.8867 19.6726 94.3542 21.0555 92.8477M16.1879 88.4803C15.9247 87.1569 17.635 86.6089 19.2137 84.3776M16.1879 88.4803C16.7141 89.4068 20.0031 92.4507 21.3186 92.8477C22.6342 93.2447 22.8973 91.1272 24.3445 89.1421M91.1763 88.8774C86.7037 84.113 80.5034 78.9594 79.0733 73.9224C77.6431 68.8854 76.179 63.9525 75.5212 62.1438C76.1786 67.5699 73.8635 73.2607 74.074 78.5545C74.1902 81.4764 74.766 84.6402 75.3987 87.2892C75.9123 89.4397 77.7573 89.9361 78.2835 92.186C76.4417 94.8329 68.7064 96.474 59.8657 96.6857C51.0249 96.8975 36.9741 94.9652 37.5004 92.8477C37.9105 91.7413 40.5621 90.0292 40.9902 87.8186C41.5691 84.8287 41.9315 81.1692 41.4475 77.7604C40.6055 71.8314 40.1319 64.8789 40.0003 62.1438C38.8163 66.2906 36.1851 75.0341 35.1327 76.834C34.2349 78.3693 28.9651 84.0749 24.3445 89.1421M94.8262 92.583C97.4248 95.7566 98.9382 99.0193 101.219 100.877C103.516 102.746 105.761 102.764 107.673 103.254C110.037 103.86 110.081 101.923 110.037 101.614C111.3 101.403 111.423 100.327 111.16 99.9301C113.397 99.6654 111.537 97.7682 111.16 97.6844C111.16 97.6844 112.844 96.5616 111.07 95.442C109.967 94.7465 108.893 94.8783 107.594 94.9137C106.003 94.957 105.546 94.8773 105.648 94.8329C106.386 94.512 107.552 94.9971 108.914 94.3159C110.037 93.7545 110.201 92.2095 108.915 91.5088C105.757 89.7883 103.675 92.0536 101.833 90.9949C101.297 90.687 100.67 90.2157 98.9382 87.951M95.9124 84.113C91.7974 78.5823 87.6452 71.9701 86.9668 70.3491C85.9143 67.8346 85.1249 53.9384 83.1516 48.9093C81.1782 43.8802 77.0999 42.8214 75.1265 42.4244C73.5478 42.1068 68.7678 39.8216 66.5752 38.7188C60.0499 42.742 54.121 40.3951 51.9722 38.7188C46.5786 41.6303 44.7361 40.0422 40.0003 42.9538C35.2646 45.8654 34.0798 50.6298 33.1589 53.2767C32.238 55.9236 30.0015 67.1728 28.1597 70.7462C26.6386 73.6973 22.2696 80.0586 19.2137 84.3776M24.3445 89.1421C24.2129 88.4803 23.4236 88.6127 22.3711 87.4216C21.3186 86.2305 19.7399 84.8252 19.2137 84.3776" stroke-width="2" stroke-linecap="round" stroke-linejoin="round"/>
            <path d="M54.0069 35.3281C53.6981 36.447 53.1979 38.1493 52.3086 38.7247" stroke-width="2" stroke-linecap="round" stroke-linejoin="round"/>
            <path d="M65.2148 35.3281C65.2148 36.1207 65.4866 37.7284 66.5735 38.7247" stroke-width="2" stroke-linecap="round" stroke-linejoin="round"/>
            <path d="M59.7488 37.3552C53.2513 37.5705 49.3065 29.8197 48.1462 25.9174C45.6968 25.3792 45.1811 22.5534 45.6968 21.0732C46.2125 19.593 47.3727 19.9967 48.1462 19.1894C48.9197 18.382 49.3065 14.4797 52.9162 13.1341C55.8039 12.0576 58.8464 12.0576 59.7488 8.82812C60.2644 11.923 65.8079 12.7304 67.2259 13.5378C68.644 14.3451 69.1597 19.0548 71.0935 19.9967C73.0272 20.9387 72.7694 21.8806 72.5115 23.7645C72.3053 25.2715 70.7067 25.8277 69.9332 25.9174C69.2456 29.6403 66.2462 37.1399 59.7488 37.3552Z" stroke-width="2" stroke-linecap="round" stroke-linejoin="round"/>
            <path d="M38.0424 93.7496C32.8431 93.8855 21.6652 94.3474 19.0215 95.1083M77.443 93.0703L96.8036 95.1083" stroke-width="2" stroke-linecap="round" stroke-linejoin="round"/>
            <path d="M95.9451 83.602C95.5682 83.0903 92.6249 86.8655 91.709 88.4972C92.7394 90.2648 94.1051 92.8813 94.9147 92.3044C95.7243 91.7275 98.2079 88.4573 98.4639 87.5451C98.8074 86.3215 96.7466 84.6898 95.9451 83.602Z" stroke-width="2" stroke-linecap="round" stroke-linejoin="round"/>
            <path d="M48.9141 40.0781C50.0564 41.2103 54.0989 45.4741 58.9495 45.4741C63.8 45.4741 68.251 41.2103 68.954 40.0781" stroke-width="2" stroke-linecap="round" stroke-linejoin="round"/>
            <path d="M4.49362 102.742C3.87986 104.829 3.97283 109.808 9.43565 114.337C19.3012 122.515 37.714 128.011 57.8367 128.394C59.7656 125.753 62.7818 118.809 61.5192 114.72C52.269 112.079 32.0836 106.311 25.8759 102.835" stroke-width="2" stroke-linecap="round" stroke-linejoin="round"/>
            <path d="M108.915 103.859C109.094 106.128 109.069 109.113 103.832 114.45C99.2345 119.136 94.8423 122.117 84.2336 124.652M72.0059 123.312C72.4535 123.046 73.5099 122.725 74.1544 123.579" stroke-width="2" stroke-linecap="round" stroke-linejoin="round"/>
            <path d="M58.082 128.015C60.7825 127.971 67.5682 127.988 69.0316 128.419C70.861 128.957 79.4849 133.932 80.6609 134.336C81.8369 134.739 82.6209 134.336 82.8822 133.932C83.492 133.932 84.7638 133.798 84.9729 133.26C85.4956 132.991 86.4886 132.265 86.2796 131.512C86.7151 131.288 87.5078 130.678 87.1942 130.033C87.7604 129.808 88.7361 129.091 88.1089 128.015C87.3249 126.671 75.3036 120.082 73.6049 119.813C71.9063 119.544 69.0316 119.544 66.941 119.409C65.2684 119.302 62.6023 118.218 61.8183 117.859" stroke-width="2" stroke-linecap="round" stroke-linejoin="round"/>
            <path d="M51.6289 23.3035L52.3422 23.0938C53.214 23.6064 55.2429 24.3241 56.3841 23.0938" stroke-width="2" stroke-linecap="round" stroke-linejoin="round"/>
            <path d="M67.2539 23.0975L66.5746 22.7578C65.4537 23.2704 64.197 24.4561 61.8193 23.0975"  stroke-width="2" stroke-linecap="round" stroke-linejoin="round"/>
            <path d="M58.4219 27.1719C58.7993 27.1719 59.7352 27.1719 60.4598 27.1719" stroke-width="2" stroke-linecap="round" stroke-linejoin="round"/>
            <path d="M57.0664 30.5703C57.5322 31.2581 59.8613 31.6708 61.1423 30.5703" stroke-width="2" stroke-linecap="round" stroke-linejoin="round"/>
            <path d="M52.9863 20.3821C53.4895 19.521 54.8733 18.1862 56.3829 19.7362" stroke-width="2" stroke-linecap="round" stroke-linejoin="round"/>
            <path d="M65.8984 20.3821C65.3952 19.521 64.0114 18.1862 62.5018 19.7362" stroke-width="2" stroke-linecap="round" stroke-linejoin="round"/>
            <path d="M59.7793 1.51377C70.8016 -0.0353272 73.6756 10.4845 74.1216 14.673C75.3168 25.8972 67.7473 34.1531 77.4416 42.7979" stroke-width="2" stroke-linecap="round" stroke-linejoin="round"/>
            <path d="M59.7793 1.52483C49.2977 -0.0444317 44.2917 9.95893 43.8675 14.202C42.731 25.5723 51.3662 33.8325 40.7583 42.4582" stroke-width="2" stroke-linecap="round" stroke-linejoin="round"/>
            <path d="M43.2645 61.8203C43.2222 63.0324 42.8846 68.9532 47.3181 71.3308" stroke-width="2" stroke-linecap="round" stroke-linejoin="round"/>
            <path d="M72.238 61.8203C72.2699 63.0819 72.2377 66.6241 71.5668 67.9342" stroke-width="2" stroke-linecap="round" stroke-linejoin="round"/>
            <path d="M53.6699 71.3278C54.0632 71.0762 56.451 70.6485 59.5693 70.6484C63.3711 70.6484 63.24 71.3278 68.615 71.3278" stroke-width="2" stroke-linecap="round" stroke-linejoin="round"/>
        </g>
    </symbol>
    <symbol id="important" viewBox="0 0 30 30" >
        <g fill="transparent">
            <circle cx="15" cy="15" r="13" stroke-width="2"/>
            <path d="M15 18V7" stroke-width="2" stroke-linecap="round" stroke-linejoin="round"/>
        </g>
        <circle cx="15" cy="22.5" r="1.5" stroke="transparent"/>
    </symbol>
    <symbol id="important-2" viewBox="0 0 24 24" >
        <path d="M12 16L12 2" fill="transparent" stroke-width="2" stroke-linecap="round"/>
        <circle cx="12" cy="21.5" r="1.5" stroke="transparent"/>
    </symbol>
    <symbol id="important-3" viewBox="0 0 20 20" >
        <g fill="transparent">
            <circle cx="10" cy="10" r="8" stroke-width="2"/>
            <path d="M10 11L10 6" stroke-width="2" stroke-linecap="round" stroke-linejoin="round"/>
            <circle cx="10" cy="14" r="0.5"/>
        </g>
    </symbol>
    <symbol id="documents" viewBox="0 0 40 40" >
        <g fill="transparent">
            <mask id="path-1-inside-1_105_13417" fill="white">
                <rect x="1" y="23" width="38" height="15" rx="1"/>
            </mask>
            <rect x="1" y="23" width="38" height="15" rx="1" stroke-width="4" stroke-linejoin="round" mask="url(#path-1-inside-1_105_13417)"/>
            <path d="M6 24V17H26.5333L29.3333 14H34V24" stroke-width="2" stroke-linecap="round" stroke-linejoin="round"/>
            <path d="M8 17V10.3333H25.6L28 8H32V14" stroke-width="2" stroke-linecap="round" stroke-linejoin="round"/>
            <path d="M10 10V4.66667H24.6667L26.6667 3H30V8" stroke-width="2" stroke-linecap="round" stroke-linejoin="round"/>
            <path d="M2 24L6 17" stroke-width="2" stroke-linecap="round" stroke-linejoin="round"/>
            <path d="M38 24L34 17" stroke-width="2" stroke-linecap="round" stroke-linejoin="round"/>
            <path d="M17 30.5H23" stroke-width="2" stroke-linecap="round" stroke-linejoin="round"/>
        </g>
    </symbol>
    <symbol id="file" viewBox="0 0 40 40" >
        <g fill="transparent">
            <rect x="7" y="2" width="26" height="36" rx="2" stroke-width="2"/>
            <path d="M11 8H29" stroke-width="2" stroke-linecap="round" stroke-linejoin="round"/>
            <path d="M11 13H29" stroke-width="2" stroke-linecap="round" stroke-linejoin="round"/>
            <path d="M11 21H23" stroke-width="2" stroke-linecap="round" stroke-linejoin="round"/>
            <path d="M11 26H16" stroke-width="2" stroke-linecap="round" stroke-linejoin="round"/>
        </g>
    </symbol>
    <symbol id="bell" viewBox="0 0 40 40" >
        <g fill="transparent">
            <path d="M8 20V26.5C8 26.5 4 26.5 4 30C4 33.5 8 33 8 33H32C32 33 36 33 36 30C36 27 32 26.5 32 26.5V20C32 16 30 6 20 6C10 6 8 16 8 20Z" stroke-width="2" stroke-linecap="round" stroke-linejoin="round"/>
            <path d="M22 6V4C22 4 22 2 20 2C18 2 18 4 18 4V6" stroke-width="2" stroke-linecap="round" stroke-linejoin="round"/>
            <path d="M15 33L15 34C15 34 15.5 38 20 38C24.5 38 25 34 25 34L25 33" stroke-width="2" stroke-linecap="round" stroke-linejoin="round"/>
        </g>
    </symbol>
    <symbol id="user" viewBox="0 0 41 40" >
        <g fill="transparent">
            <rect x="14.5" y="7" width="12" height="13" rx="6" stroke-width="2"/>
            <path d="M8.5 28C8.5 28 8.5 27.5479 8.5 26.8668C8.5 26.2375 8.63355 25.6022 9.05871 25.1383C11.1595 22.846 17.2746 20 20.5 20" stroke-width="2" stroke-linecap="round" stroke-linejoin="round"/>
            <path d="M32.5 28C32.5 28 32.5 27.5479 32.5 26.8668C32.5 26.2375 32.3665 25.6022 31.9413 25.1383C29.8405 22.846 23.7254 20 20.5 20" stroke-width="2" stroke-linecap="round" stroke-linejoin="round"/>
            <circle cx="20.5" cy="20" r="18" stroke-width="2"/>
        </g>
    </symbol>
    <symbol id="questionnaire" viewBox="0 0 41 40" >
        <g fill="transparent">
            <rect x="7.5" y="2" width="26" height="36" rx="2" stroke-width="2"/>
            <path d="M20.5 8H29.5" stroke-width="2" stroke-linecap="round" stroke-linejoin="round"/>
            <path d="M20.5 16H29.5" stroke-width="2" stroke-linecap="round" stroke-linejoin="round"/>
            <path d="M20.5 24H29.5" stroke-width="2" stroke-linecap="round" stroke-linejoin="round"/>
            <path d="M20.5 32H29.5" stroke-width="2" stroke-linecap="round" stroke-linejoin="round"/>
            <circle cx="14.5" cy="8" r="2" stroke-width="2"/>
            <circle cx="14.5" cy="16" r="2" stroke-width="2"/>
            <circle cx="14.5" cy="24" r="2" stroke-width="2"/>
            <circle cx="14.5" cy="32" r="2" stroke-width="2"/>
        </g>
    </symbol>
    <symbol id="arrow-down" viewBox="0 0 20 20" >
        <g fill="transparent">
            <path d="M18.4862 10.4844L10.0009 18.9697L1.51562 10.4844" stroke-width="2" stroke-linecap="round" stroke-linejoin="round"/>
            <path d="M10 18L10 1" stroke-width="2" stroke-linecap="round" stroke-linejoin="round"/>
        </g>
    </symbol>
    <symbol id="info" viewBox="0 0 20 20" >
        <path d="M12.1456 17.334C1.59266 19.5557 17.1445 4.67137 6.59176 6.89261" fill="transparent"  stroke-width="2" stroke-linecap="round"/>
        <circle cx="11.5" cy="2.5" r="1.5" stroke="transparent" />
    </symbol>
    <symbol id="health-heart" viewBox="0 0 40 40" >
        <g fill="transparent">
            <path d="M19.2273 5.84236C19.4039 6.13583 19.7185 6.31844 20.061 6.32633C20.4034 6.33421 20.7261 6.16627 20.9161 5.88125C22.3218 3.77249 24.7475 2.21971 27.5474 2.04425C30.3154 1.87078 33.5917 3.03808 36.7157 6.6431C39.6379 10.0152 39.8095 15.2555 36.9253 21.1024C34.1087 26.8125 28.4436 32.9045 20.0759 37.8411C11.5484 32.7727 5.8684 26.6324 3.06015 20.9308C0.184965 15.0934 0.388713 9.92184 3.23563 6.64393C9.29058 -0.327662 16.6254 1.52057 19.2273 5.84236Z" stroke-width="2" stroke-linecap="round" stroke-linejoin="round"/>
            <path d="M20 12L20 28" stroke-width="2" stroke-linecap="round" stroke-linejoin="round"/>
            <path d="M12 20H28" stroke-width="2" stroke-linecap="round" stroke-linejoin="round"/>
            <path d="M4.89453 13.6523C4.89453 13.6523 4.60156 7.11719 11.6016 6.61719" stroke-width="2" stroke-linecap="round" stroke-linejoin="round"/>
        </g>
    </symbol>
    <symbol id="safety" viewBox="0 0 20 20" >
        <g fill="transparent">
            <path d="M6 19H10H14C15.6569 19 17 17.6569 17 16V10C17 8.89543 16.1046 8 15 8H5C3.89543 8 3 8.89543 3 10V16C3 17.6569 4.34315 19 6 19Z"/>
            <path d="M5 8C5 8 5 7.41667 5 5.66667C5 3.91667 6.25 1 10 1C13.75 1 15 3.91667 15 5.66667C15 7.41667 15 8 15 8"/>
            <path d="M10 15V12" stroke-linecap="round"/>
        </g>
    </symbol>
    <symbol id="email" viewBox="0 0 20 20" >
        <g fill="transparent">
            <path d="M17.779 6.42188L10.0008 11.7556L2.22266 6.42188" stroke-width="2" stroke-linecap="round" stroke-linejoin="round"/>
            <rect x="2" y="5" width="16" height="12" rx="1" stroke-width="2"/>
        </g>
    </symbol>
    <symbol id="email-2" viewBox="0 0 40 40" >
        <g fill="transparent">
            <path d="M35.558 10.1746L20.0017 20.842L4.44531 10.1746" stroke-width="2" stroke-linecap="round" stroke-linejoin="round"/>
            <rect x="3" y="7" width="34" height="26" rx="3" stroke-width="2"/>
        </g>
    </symbol>
    <symbol id="add-file" viewBox="0 0 30 30" >
        <g fill="transparent">
            <path d="M23.7484 18.4454L15.9702 26.2236C15.9702 26.2236 10.3134 31.8805 4.6565 26.2236C-1.00035 20.5668 4.6565 14.9099 4.6565 14.9099L16.3238 3.24264C16.3238 3.24264 20.5664 -1 24.809 3.24264C29.0517 7.48528 24.809 11.7279 24.809 11.7279L13.8489 22.6881C13.8489 22.6881 11.0205 25.5165 8.19204 22.6881C5.36361 19.8596 8.19204 17.0312 8.19204 17.0312L15.2631 9.96015" stroke-width="2" stroke-linecap="round"/>
        </g>
    </symbol>
    <symbol id="locked" viewBox="0 0 20 20" >
        <path d="M7 18H10H13C14.6569 18 16 16.6569 16 15V10C16 8.89543 15.1046 8 14 8H6C4.89543 8 4 8.89543 4 10V15C4 16.6569 5.34315 18 7 18Z" stroke-width="2"/>
        <path d="M6 8C6 8 6 7.5 6 6C6 4.5 7 2 10 2C13 2 14 4.5 14 6C14 7.5 14 8 14 8" fill="transparent"  stroke-width="2"/>
    </symbol>
    <symbol id="add-card" viewBox="0 0 40 40" >
        <g fill="transparent">
            <path d="M19.332 29.3346H7.33203C5.12289 29.3346 3.33203 27.5438 3.33203 25.3346V10.668C3.33203 8.45883 5.12289 6.66797 7.33203 6.66797H32.6654C34.8745 6.66797 36.6654 8.45883 36.6654 10.668V18.0013" stroke-width="2" stroke-linecap="round"/>
            <path d="M3.33203 12.668H36.6654" stroke-width="2" stroke-linecap="round"/>
            <path d="M8 24H12.6667" stroke-width="2" stroke-linecap="round"/>
            <path d="M27.332 28L33.9987 28" stroke-width="2" stroke-linecap="round"/>
            <path d="M30.668 24.668L30.668 31.3346" stroke-width="2" stroke-linecap="round"/>
            <circle cx="30.6667" cy="27.9987" r="7.66667" stroke-width="2"/>
        </g>
    </symbol>
    <symbol id="remove-card" viewBox="0 0 40 40" >
        <g fill="transparent">
            <path d="M19.333 29.3337H7.33301C5.12387 29.3337 3.33301 27.5428 3.33301 25.3337V10.667C3.33301 8.45785 5.12387 6.66699 7.33301 6.66699H32.6663C34.8755 6.66699 36.6663 8.45785 36.6663 10.667V18.0003" stroke-width="2" stroke-linecap="round"/>
            <path d="M3.33301 12.667H36.6663" stroke-width="2" stroke-linecap="round"/>
            <path d="M8 24H12.6667" stroke-width="2" stroke-linecap="round"/>
            <path d="M27.333 28L33.9997 28" stroke-width="2" stroke-linecap="round"/>
            <circle cx="30.6667" cy="27.9997" r="7.66667" stroke-width="2"/>
        </g>
    </symbol>

    <symbol id="star-check" viewBox="0 0 40 40" >
        <g fill="transparent">
            <path d="M18.4231 3.5747C18.942 2.0821 21.0528 2.0821 21.5717 3.5747L24.3998 11.7109C24.9033 13.1595 26.2552 14.1416 27.7885 14.1729L36.4004 14.3484C37.9803 14.3806 38.6326 16.3882 37.3733 17.3428L30.5093 22.5468C29.2872 23.4733 28.7709 25.0625 29.215 26.5304L31.7093 34.775C32.1669 36.2875 30.4591 37.5283 29.162 36.6257L22.0917 31.7057C20.8329 30.8298 19.1619 30.8298 17.9031 31.7057L10.8327 36.6257C9.53568 37.5283 7.82793 36.2875 8.28552 34.775L10.7798 26.5304C11.2239 25.0625 10.7076 23.4733 9.48547 22.5468L2.62145 17.3428C1.36223 16.3882 2.01454 14.3806 3.59441 14.3484L12.2063 14.1729C13.7396 14.1416 15.0915 13.1595 15.595 11.7109L18.4231 3.5747Z" stroke-width="2"/>
            <path d="M15 21L18.3333 24L25 18" stroke-width="2" stroke-linecap="round" stroke-linejoin="round"/>
        </g>
    </symbol>
    <symbol id="log-out" viewBox="0 0 20 20" >
        <g fill="transparent">
            <path d="M10.7285 18C5.2428 18 2.49995 13.5556 2.49995 10C2.49995 6.44444 5.2428 2 10.7285 2" stroke-width="2" stroke-linecap="round" stroke-linejoin="round"/>
            <path d="M14 6L18 10L14 14" stroke-width="2" stroke-linecap="round" stroke-linejoin="round"/>
            <path d="M18 10H9" stroke-width="2" stroke-linecap="round"/>
        </g>
    </symbol>
    <symbol id="log-in" viewBox="0 0 20 20" >
        <g fill="transparent">
            <path d="M2.5 13C2.5 13 4.5 18 9.77143 18C15.2571 18 18 13.5556 18 10C18 6.44444 15.2571 2 9.77143 2C4.5 2 2.5 7 2.5 7" stroke-width="2" stroke-linecap="round" stroke-linejoin="round"/>
            <path d="M10 6L14 10L10 14" stroke-width="2" stroke-linecap="round" stroke-linejoin="round"/>
            <path d="M14 10H5" stroke-width="2" stroke-linecap="round"/>
        </g>
    </symbol>
    <symbol id="user-info" viewBox="0 0 40 40" >
        <g fill="transparent">
            <rect x="2.33594" y="7.66699" width="35.3333" height="24.6667" rx="4.33333" stroke-width="2"/>
            <path d="M6.66406 28C7.4048 26.6667 7.77517 24 13.3307 24C18.8863 24 19.2567 26.6667 19.9974 28" stroke-width="2" stroke-linecap="round" stroke-linejoin="round"/>
            <circle cx="13.3333" cy="16.0003" r="4.33333" stroke-width="2"/>
            <path d="M24 14.667H33.3333" stroke-width="2" stroke-linecap="round" stroke-linejoin="round"/>
            <path d="M24 20H32" stroke-width="2" stroke-linecap="round" stroke-linejoin="round"/>
            <path d="M24 25.333H28" stroke-width="2" stroke-linecap="round" stroke-linejoin="round"/>
        </g>
    </symbol>
    <symbol id="security" viewBox="0 0 40 40" >
        <g fill="transparent">
            <path d="M34.8856 9.33398C34.8856 9.8719 34.9081 10.4896 34.933 11.1726C35.0501 14.3848 35.2197 19.04 33.347 23.6223C31.8694 27.2377 29.4909 30.7985 26.9479 33.4436C25.6774 34.765 24.3866 35.8362 23.171 36.5708C21.943 37.3129 20.8651 37.6673 20 37.6673C19.1349 37.6673 18.057 37.3129 16.829 36.5708C15.6134 35.8362 14.3226 34.765 13.0521 33.4436C10.5091 30.7985 8.13065 27.2377 6.65304 23.6223C4.78027 19.04 4.94994 14.3848 5.06701 11.1726C5.0919 10.4896 5.11442 9.8719 5.11442 9.33398C5.11442 8.07398 5.76881 7.00272 6.97388 6.05869C8.19291 5.10373 9.8878 4.35631 11.7154 3.78903C15.3711 2.65431 19.242 2.33398 20 2.33398C20.758 2.33398 24.6289 2.65431 28.2846 3.78903C30.1122 4.35631 31.8071 5.10373 33.0261 6.05869C34.2312 7.00272 34.8856 8.07398 34.8856 9.33398Z" stroke-width="2"/>
            <path d="M11.5977 17.9997L17.6421 23.6663L29.731 12.333" stroke-width="2" stroke-linecap="round" stroke-linejoin="round"/>
        </g>
    </symbol>
    <symbol id="phone" viewBox="0 0 20 20" >
        <g fill="transparent">
            <path d="M4.81957 2.42077C6.25387 0.986468 9.83892 6.00441 8.40462 7.43871C7.7315 8.11183 7.42263 9.0846 7.9214 9.89541C8.1601 10.2834 8.49299 10.7266 8.95563 11.1892C9.41511 11.6487 9.85481 11.9807 10.2402 12.2197C11.0525 12.7236 12.0302 12.4161 12.7061 11.7402C14.1399 10.3064 19.1584 13.891 17.7241 15.3253L16.1466 16.9027C16.0071 17.0422 15.8573 17.1668 15.6808 17.255C14.6746 17.7582 10.8095 19.1635 5.89541 14.2494C1.12226 9.47627 1.94451 6.0594 2.35474 5.04729C2.44127 4.83378 2.5855 4.65484 2.7484 4.49194L4.81957 2.42077Z" stroke-width="2"/>
        </g>
    </symbol>
    <symbol id="phone-2" viewBox="0 0 40 40" >
        <g fill="transparent">
            <path d="M9.63914 4.84251C12.5077 1.97391 19.6778 12.0098 16.8092 14.8784C15.463 16.2246 14.8453 18.1702 15.8428 19.7918C16.3202 20.5679 16.986 21.4541 17.9113 22.3794C18.8302 23.2983 19.7096 23.9624 20.4805 24.4405C22.105 25.4481 24.0605 24.8332 25.4122 23.4814C28.2799 20.6137 38.3167 27.7829 35.4481 30.6515L32.2932 33.8064C32.0142 34.0854 31.7145 34.3346 31.3616 34.511C29.3493 35.5175 21.6189 38.3279 11.7908 28.4998C2.24453 18.9535 3.88902 12.1198 4.70947 10.0956C4.88254 9.66854 5.171 9.31066 5.49679 8.98486L9.63914 4.84251Z" stroke-width="2"/>
        </g>
    </symbol>
    <symbol id="lock-outline" viewBox="0 0 21 20" >
        <g fill="transparent">
            <path d="M7.5 18H10.5H13.5C15.1569 18 16.5 16.6569 16.5 15V10C16.5 8.89543 15.6046 8 14.5 8H6.5C5.39543 8 4.5 8.89543 4.5 10V15C4.5 16.6569 5.84315 18 7.5 18Z" stroke-width="2"/>
            <path d="M6.5 8C6.5 8 6.5 7.5 6.5 6C6.5 4.5 7.5 2 10.5 2C13.5 2 14.5 4.5 14.5 6C14.5 7.5 14.5 8 14.5 8" stroke-width="2"/>
            <path d="M10.5 14V12" stroke-width="2" stroke-linecap="round"/>
        </g>
    </symbol>
    <symbol id="lock-outline-sms" viewBox="0 0 21 20" >
        <g fill="transparent">
            <path d="M8.5 18H5.5C3.84315 18 2.5 16.6569 2.5 15V10C2.5 8.89543 3.39543 8 4.5 8H12.5" stroke-width="2" stroke-linecap="round"/>
            <path d="M4.5 8C4.5 8 4.5 7.5 4.5 6C4.5 4.5 5.5 2 8.5 2C11.5 2 12.5 4.5 12.5 6C12.5 7.5 12.5 8 12.5 8" stroke-width="2"/>
            <path d="M8.5 14V12" stroke-width="2" stroke-linecap="round"/>
            <path d="M11.5 11V16.5H13L14.5 18L16 16.5H18.5V11H11.5Z" stroke-width="2" stroke-linecap="round" stroke-linejoin="round"/>
        </g>
    </symbol>
    <symbol id="lock-outline-reset" viewBox="0 0 21 20" >
        <g fill="transparent">
            <path d="M7 18H5.5C3.84315 18 2.5 16.6569 2.5 15V10C2.5 8.89543 3.39543 8 4.5 8H12.5" stroke-width="2" stroke-linecap="round"/>
            <path d="M4.5 8C4.5 8 4.5 7.5 4.5 6C4.5 4.5 5.5 2 8.5 2C11.5 2 12.5 4.5 12.5 6C12.5 7.5 12.5 8 12.5 8" stroke-width="2"/>
            <path d="M8.5 14V12" stroke-width="2" stroke-linecap="round"/>
            <path d="M17.1679 16.7139C16.8649 17.0849 16.4891 17.3897 16.0636 17.6095C15.6381 17.8293 15.172 17.9595 14.6942 17.992C14.2163 18.0244 13.7369 17.9584 13.2856 17.7982C12.8343 17.6379 12.4207 17.3867 12.0704 17.0601" stroke-width="2" stroke-linecap="round" stroke-linejoin="round"/>
            <path d="M11.7267 12.3101C12.0667 11.8862 12.5007 11.5473 12.9944 11.3203C13.4881 11.0932 14.0278 10.9842 14.5709 11.0019C15.114 11.0195 15.6455 11.1634 16.1234 11.4221C16.6012 11.6808 17.0123 12.0472 17.324 12.4923" stroke-width="2" stroke-linecap="round" stroke-linejoin="round"/>
            <path d="M10.457 18L10.957 16L12.957 15.5" stroke-width="2" stroke-linecap="round" stroke-linejoin="round"/>
            <path d="M18.457 11L17.957 13L15.957 13.5" stroke-width="2" stroke-linecap="round" stroke-linejoin="round"/>
        </g>
    </symbol>
    <symbol id="lock-outline-reset-2" viewBox="0 0 40 40" >
        <g fill="transparent">
            <path d="M13 36H10C6.68629 36 4 33.3137 4 30V20C4 17.7909 5.79086 16 8 16H24" stroke-width="2" stroke-linecap="round"/>
            <path d="M8 16C8 16 8 15 8 12C8 9 10 4 16 4C22 4 24 9 24 12C24 15 24 16 24 16" stroke-width="2"/>
            <path d="M16 28V24" stroke-width="2" stroke-linecap="round"/>
            <path d="M33.8622 34.0604C33.0853 35.0116 32.0998 35.7713 30.9821 36.2804C29.8644 36.7895 28.6444 37.0344 27.4168 36.9961C26.1892 36.9579 24.9869 36.6375 23.9031 36.0598C22.8192 35.4821 21.8829 34.6626 21.1668 33.6648" stroke-width="2" stroke-linecap="round" stroke-linejoin="round"/>
            <path d="M21.4254 23.9946C22.2025 23.0257 23.1945 22.2511 24.3229 21.732C25.4512 21.213 26.685 20.9638 27.9263 21.0042C29.1677 21.0446 30.3826 21.3735 31.4748 21.9649C32.567 22.5562 33.5066 23.3937 34.219 24.4111" stroke-width="2" stroke-linecap="round" stroke-linejoin="round"/>
            <path d="M19.9131 36.667L20.9131 32.667L24.9131 31.667" stroke-width="2" stroke-linecap="round" stroke-linejoin="round"/>
            <path d="M35.2471 21.333L34.2471 25.333L30.2471 26.333" stroke-width="2" stroke-linecap="round" stroke-linejoin="round"/>
        </g>
    </symbol>
</svg>



